<?xml version="1.0" encoding="UTF-8"?>
<svg xmlns="http://www.w3.org/2000/svg" xmlns:xlink="http://www.w3.org/1999/xlink" width="157px" height="53px" viewBox="0 0 157 53" version="1.1">
<g id="surface1">
<path style=" stroke:none;fill-rule:nonzero;fill:rgb(92.941177%,51.372552%,14.117648%);fill-opacity:1;" d="M 50.601562 40.722656 C 50.0625 40.722656 49.566406 40.710938 49.078125 40.722656 C 48.875 40.722656 48.824219 40.597656 48.75 40.46875 L 43.105469 30.839844 C 42.910156 30.488281 42.6875 30.148438 42.441406 29.828125 C 42.546875 30.863281 42.652344 31.898438 42.765625 33 C 42.363281 32.832031 41.972656 32.636719 41.597656 32.417969 C 41.015625 32.019531 40.578125 32.078125 39.992188 32.511719 C 38.160156 33.878906 35.941406 34.621094 33.660156 34.625 C 31.871094 34.644531 30.105469 34.242188 28.5 33.445312 L 28.363281 33.382812 C 28.363281 33.382812 28.347656 33.382812 28.304688 33.398438 C 28.351562 35.816406 28.402344 38.242188 28.453125 40.675781 C 28.324219 40.675781 28.253906 40.601562 28.171875 40.554688 C 26.8125 39.726562 25.453125 38.898438 24.089844 38.078125 C 23.945312 38.007812 23.863281 37.855469 23.878906 37.695312 C 23.878906 33.6875 23.878906 29.679688 23.878906 25.671875 C 23.878906 25.46875 23.910156 25.386719 24.132812 25.417969 C 25.59375 25.539062 27.0625 25.644531 28.527344 25.75 C 28.675781 25.757812 28.8125 25.839844 28.894531 25.964844 C 29.539062 26.8125 30.300781 27.558594 31.164062 28.179688 C 33.160156 29.574219 35.191406 29.445312 37 27.824219 C 37.738281 27.164062 38.363281 26.386719 38.847656 25.523438 C 38.902344 25.390625 39.03125 25.304688 39.171875 25.3125 C 40.597656 25.3125 42.027344 25.28125 43.453125 25.25 C 43.703125 25.25 43.765625 25.320312 43.765625 25.566406 C 43.765625 26.035156 43.808594 26.496094 43.816406 26.960938 C 43.828125 27.113281 43.878906 27.257812 43.964844 27.382812 C 46.117188 31.722656 48.273438 36.058594 50.433594 40.394531 Z M 50.601562 40.722656 "/>
<path style=" stroke:none;fill-rule:nonzero;fill:rgb(17.647059%,16.862746%,42.745098%);fill-opacity:1;" d="M 35.851562 18.09375 C 35.945312 17.980469 36.007812 17.84375 36.035156 17.699219 C 36.378906 16.703125 36.714844 15.699219 37.058594 14.699219 C 37.214844 14.242188 37.425781 14.109375 37.90625 14.191406 C 38.570312 14.3125 39.1875 14.628906 39.679688 15.097656 C 40.585938 15.925781 41.34375 16.902344 41.925781 17.988281 C 42.273438 18.566406 42.578125 19.171875 42.839844 19.796875 C 43.109375 20.425781 43.464844 21.015625 43.894531 21.550781 C 44.0625 21.804688 44.34375 21.960938 44.648438 21.964844 C 45.175781 21.980469 45.351562 22.257812 45.214844 22.777344 C 45.117188 23.078125 44.929688 23.34375 44.679688 23.535156 C 44.152344 24 43.476562 24.257812 42.777344 24.261719 C 39.917969 24.34375 37.0625 24.3125 34.214844 24.304688 C 32.867188 24.304688 31.519531 24.277344 30.171875 24.261719 C 28.511719 24.242188 26.851562 24.261719 25.195312 24.1875 C 24.3125 24.167969 23.460938 23.855469 22.773438 23.296875 C 22.59375 23.183594 22.472656 23 22.441406 22.789062 C 22.417969 22.625 22.503906 22.460938 22.648438 22.382812 C 23.40625 21.984375 23.890625 21.308594 24.363281 20.625 C 24.816406 19.941406 25.226562 19.230469 25.597656 18.496094 C 26.46875 16.878906 27.542969 15.429688 29.085938 14.386719 C 29.261719 14.269531 29.441406 14.160156 29.628906 14.058594 C 29.8125 13.929688 30.046875 13.902344 30.253906 13.988281 C 30.457031 14.070312 30.609375 14.253906 30.652344 14.476562 C 31.015625 15.566406 31.375 16.660156 31.738281 17.75 C 31.761719 17.839844 31.8125 17.921875 31.886719 17.976562 C 31.832031 17.367188 31.777344 16.761719 31.722656 16.15625 C 31.613281 14.980469 31.507812 13.800781 31.386719 12.625 C 31.359375 12.371094 31.386719 12.296875 31.671875 12.296875 C 33.210938 12.296875 34.75 12.296875 36.289062 12.296875 C 36.492188 12.296875 36.5625 12.320312 36.539062 12.550781 C 36.289062 14.3125 36.066406 16.078125 35.832031 17.839844 C 35.796875 17.921875 35.804688 18.015625 35.851562 18.09375 Z M 35.851562 18.09375 "/>
<path style=" stroke:none;fill-rule:nonzero;fill:rgb(92.941177%,51.372552%,14.117648%);fill-opacity:1;" d="M 21.707031 41.707031 C 20.878906 41.0625 20.117188 40.332031 19.4375 39.535156 C 16.910156 36.714844 15.257812 33.210938 14.675781 29.460938 C 13.765625 23.511719 15.160156 18.128906 18.933594 13.441406 C 21.800781 9.789062 25.886719 7.304688 30.433594 6.449219 C 36.667969 5.230469 42.300781 6.660156 47.257812 10.675781 C 47.832031 11.152344 48.378906 11.65625 48.894531 12.195312 C 48.925781 12.234375 48.953125 12.277344 48.992188 12.324219 C 48.859375 12.359375 48.800781 12.257812 48.726562 12.203125 C 45.917969 10.109375 42.597656 8.816406 39.117188 8.464844 C 32.671875 7.832031 27.128906 9.824219 22.570312 14.441406 C 19.539062 17.46875 17.609375 21.433594 17.085938 25.699219 C 16.332031 31.578125 17.84375 36.828125 21.589844 41.421875 C 21.65625 41.5 21.710938 41.582031 21.769531 41.660156 Z M 21.707031 41.707031 "/>
<path style=" stroke:none;fill-rule:nonzero;fill:rgb(17.647059%,16.862746%,42.352942%);fill-opacity:1;" d="M 135.21875 21.015625 L 135.21875 21.320312 C 135.21875 23.738281 135.21875 26.15625 135.21875 28.574219 C 135.21875 28.828125 135.160156 28.894531 134.90625 28.886719 C 134.253906 28.867188 133.601562 28.875 132.945312 28.886719 C 132.765625 28.886719 132.710938 28.847656 132.710938 28.65625 C 132.710938 24.757812 132.710938 20.863281 132.710938 16.96875 C 132.710938 16.785156 132.75 16.726562 132.941406 16.734375 C 133.613281 16.746094 134.285156 16.746094 134.953125 16.734375 C 135.125 16.714844 135.285156 16.800781 135.359375 16.957031 C 136.855469 19.433594 138.355469 21.90625 139.863281 24.375 C 139.914062 24.460938 139.96875 24.542969 140.058594 24.683594 C 140.058594 24.535156 140.074219 24.429688 140.074219 24.347656 C 140.074219 21.90625 140.074219 19.46875 140.074219 17.035156 C 140.074219 16.804688 140.113281 16.722656 140.359375 16.730469 C 141.027344 16.75 141.691406 16.730469 142.355469 16.730469 C 142.527344 16.730469 142.570312 16.78125 142.570312 16.949219 C 142.570312 20.855469 142.570312 24.757812 142.570312 28.667969 C 142.570312 28.839844 142.523438 28.886719 142.351562 28.882812 C 141.648438 28.882812 140.941406 28.882812 140.238281 28.882812 C 140.058594 28.882812 139.988281 28.789062 139.921875 28.667969 C 138.4375 26.207031 136.945312 23.746094 135.449219 21.28125 C 135.394531 21.1875 135.367188 21.074219 135.21875 21.015625 Z M 135.21875 21.015625 "/>
<path style=" stroke:none;fill-rule:nonzero;fill:rgb(18.039216%,17.254902%,42.745098%);fill-opacity:1;" d="M 119.441406 22.804688 C 119.363281 21.546875 119.625 20.292969 120.195312 19.171875 C 121.089844 17.496094 122.503906 16.640625 124.386719 16.566406 C 127.179688 16.445312 129.195312 18.230469 129.65625 21.125 C 129.90625 22.71875 129.882812 24.3125 129.308594 25.847656 C 128.425781 28.210938 126.320312 29.332031 123.886719 29.027344 C 121.578125 28.738281 120.039062 27.070312 119.582031 24.675781 C 119.46875 24.058594 119.421875 23.429688 119.441406 22.804688 Z M 127.203125 22.820312 C 127.25 22.03125 127.160156 21.242188 126.941406 20.484375 C 126.339844 18.609375 124.785156 18.390625 123.667969 18.808594 C 122.875 19.109375 122.457031 19.761719 122.234375 20.535156 C 121.910156 21.800781 121.859375 23.125 122.082031 24.414062 C 122.152344 25.164062 122.484375 25.871094 123.015625 26.402344 C 124.210938 27.527344 126.136719 27.0625 126.808594 25.496094 C 127.132812 24.640625 127.269531 23.71875 127.203125 22.804688 Z M 127.203125 22.820312 "/>
<path style=" stroke:none;fill-rule:nonzero;fill:rgb(18.039216%,16.862746%,42.745098%);fill-opacity:1;" d="M 87.351562 28.882812 C 86.511719 28.882812 85.667969 28.882812 84.832031 28.882812 C 84.691406 28.882812 84.683594 28.78125 84.65625 28.6875 C 84.421875 27.976562 84.175781 27.273438 83.953125 26.5625 C 83.945312 26.488281 83.90625 26.421875 83.847656 26.378906 C 83.789062 26.335938 83.71875 26.316406 83.644531 26.328125 C 82.347656 26.328125 81.050781 26.328125 79.753906 26.328125 C 79.5625 26.328125 79.5 26.390625 79.445312 26.5625 C 79.230469 27.257812 78.988281 27.941406 78.777344 28.632812 C 78.71875 28.816406 78.648438 28.886719 78.449219 28.886719 C 77.652344 28.871094 76.859375 28.886719 76.019531 28.886719 C 76.15625 28.515625 76.273438 28.164062 76.410156 27.808594 C 77.753906 24.203125 79.09375 20.597656 80.425781 16.988281 C 80.457031 16.820312 80.617188 16.707031 80.789062 16.734375 C 81.410156 16.75 82.046875 16.734375 82.660156 16.734375 C 82.777344 16.710938 82.894531 16.789062 82.925781 16.90625 C 84.402344 20.875 85.878906 24.839844 87.359375 28.800781 C 87.359375 28.816406 87.351562 28.835938 87.351562 28.882812 Z M 81.679688 19.839844 L 80.191406 24.324219 C 81.148438 24.324219 82.0625 24.324219 82.980469 24.324219 C 83.15625 24.324219 83.1875 24.277344 83.128906 24.117188 C 82.96875 23.664062 82.816406 23.203125 82.664062 22.746094 C 82.34375 21.808594 82.027344 20.863281 81.679688 19.839844 Z M 81.679688 19.839844 "/>
<path style=" stroke:none;fill-rule:nonzero;fill:rgb(17.647059%,16.862746%,42.352942%);fill-opacity:1;" d="M 66.34375 22.804688 C 66.34375 20.871094 66.34375 18.9375 66.34375 17.003906 C 66.34375 16.78125 66.394531 16.71875 66.621094 16.71875 C 68.214844 16.71875 69.804688 16.695312 71.394531 16.734375 C 72.832031 16.769531 74.113281 17.226562 74.972656 18.472656 C 76.601562 20.851562 75.332031 23.878906 72.492188 24.433594 C 72.054688 24.519531 71.613281 24.5625 71.171875 24.5625 C 70.417969 24.5625 69.644531 24.5625 68.882812 24.582031 C 68.808594 25.355469 68.867188 26.136719 68.851562 26.910156 C 68.851562 27.476562 68.851562 28.042969 68.851562 28.609375 C 68.851562 28.820312 68.800781 28.882812 68.597656 28.863281 C 67.953125 28.847656 67.308594 28.847656 66.664062 28.863281 C 66.414062 28.863281 66.347656 28.816406 66.347656 28.558594 C 66.351562 26.65625 66.34375 24.734375 66.34375 22.804688 Z M 68.84375 20.628906 C 68.84375 21.1875 68.84375 21.742188 68.84375 22.300781 C 68.84375 22.515625 68.910156 22.566406 69.117188 22.550781 C 69.707031 22.539062 70.304688 22.550781 70.898438 22.550781 C 71.179688 22.550781 71.457031 22.527344 71.734375 22.480469 C 72.597656 22.320312 73.085938 21.699219 73.09375 20.78125 C 73.109375 19.640625 72.507812 18.894531 71.40625 18.753906 C 70.605469 18.65625 69.796875 18.738281 68.992188 18.71875 C 68.832031 18.71875 68.851562 18.820312 68.851562 18.921875 Z M 68.84375 20.628906 "/>
<path style=" stroke:none;fill-rule:nonzero;fill:rgb(18.431373%,17.254902%,42.745098%);fill-opacity:1;" d="M 40.121094 38.054688 C 40.085938 38.28125 40 38.496094 39.871094 38.6875 C 38.507812 41.226562 36.230469 43.144531 33.507812 44.046875 C 33.40625 44.082031 33.242188 44.046875 33.257812 44.230469 C 33.273438 44.414062 33.449219 44.386719 33.554688 44.410156 C 34.582031 44.59375 35.582031 44.925781 36.519531 45.394531 C 36.878906 45.574219 37.203125 45.824219 37.46875 46.128906 C 37.664062 46.34375 37.777344 46.625 37.777344 46.917969 C 37.714844 46.96875 37.671875 46.917969 37.632812 46.902344 C 36.363281 46.101562 34.90625 45.652344 33.410156 45.605469 C 31.960938 45.503906 30.507812 45.730469 29.15625 46.269531 C 28.4375 46.585938 27.683594 46.804688 26.910156 46.929688 C 26.761719 46.953125 26.609375 46.964844 26.457031 46.964844 C 26.113281 47.003906 25.792969 46.769531 25.726562 46.425781 C 25.640625 46.152344 25.742188 45.859375 25.976562 45.699219 C 26.464844 45.308594 27.015625 45 27.597656 44.785156 C 27.742188 44.726562 27.996094 44.761719 27.996094 44.546875 C 27.996094 44.292969 27.722656 44.367188 27.570312 44.328125 C 22.84375 43.078125 19.933594 40.050781 18.980469 35.242188 C 18.453125 32.597656 18.964844 30.058594 20.289062 27.699219 C 20.316406 27.65625 20.34375 27.613281 20.375 27.574219 C 20.410156 27.550781 20.449219 27.53125 20.488281 27.515625 C 19.464844 30.34375 19.453125 33.128906 20.585938 35.878906 C 22.746094 41.140625 28.476562 43.953125 33.929688 42.425781 C 36.429688 41.722656 38.617188 40.179688 40.121094 38.054688 Z M 40.121094 38.054688 "/>
<path style=" stroke:none;fill-rule:nonzero;fill:rgb(18.039216%,17.254902%,42.745098%);fill-opacity:1;" d="M 117.015625 20.863281 C 116.210938 20.863281 115.421875 20.863281 114.640625 20.863281 C 114.515625 20.863281 114.503906 20.808594 114.488281 20.707031 C 114.332031 19.335938 113.734375 18.589844 112.03125 18.628906 C 111.140625 18.609375 110.335938 19.167969 110.039062 20.015625 C 109.789062 20.679688 109.664062 21.382812 109.679688 22.09375 C 109.664062 23.082031 109.625 24.074219 109.851562 25.050781 C 110.25 26.78125 111.90625 27.539062 113.480469 26.710938 C 114.042969 26.410156 114.410156 25.832031 114.441406 25.191406 C 114.480469 24.882812 114.582031 24.800781 114.882812 24.8125 C 115.472656 24.839844 116.070312 24.839844 116.664062 24.8125 C 116.984375 24.796875 117.023438 24.914062 116.984375 25.191406 C 116.734375 26.964844 115.800781 28.183594 114.097656 28.769531 C 112.953125 29.171875 111.707031 29.203125 110.539062 28.855469 C 108.894531 28.363281 107.894531 27.1875 107.453125 25.558594 C 106.941406 23.769531 106.941406 21.871094 107.453125 20.078125 C 108.207031 17.5 110.25 16.277344 112.914062 16.574219 C 114.265625 16.71875 115.402344 17.265625 116.203125 18.414062 C 116.683594 19.144531 116.964844 19.988281 117.015625 20.863281 Z M 117.015625 20.863281 "/>
<path style=" stroke:none;fill-rule:nonzero;fill:rgb(18.039216%,16.862746%,42.745098%);fill-opacity:1;" d="M 93.511719 25.710938 L 95.105469 20.414062 C 95.449219 19.265625 95.792969 18.117188 96.140625 16.96875 C 96.167969 16.863281 96.164062 16.730469 96.347656 16.730469 C 97.21875 16.730469 98.09375 16.730469 99.007812 16.730469 C 98.804688 17.320312 98.613281 17.878906 98.417969 18.441406 C 97.242188 21.820312 96.066406 25.195312 94.894531 28.574219 C 94.816406 28.796875 94.726562 28.886719 94.476562 28.875 C 93.773438 28.855469 93.066406 28.863281 92.363281 28.875 C 92.234375 28.894531 92.113281 28.808594 92.085938 28.683594 L 87.980469 16.796875 C 87.980469 16.773438 87.980469 16.75 87.980469 16.726562 L 89.339844 16.726562 C 89.722656 16.726562 90.097656 16.726562 90.488281 16.726562 C 90.683594 16.726562 90.757812 16.78125 90.8125 16.980469 C 91.652344 19.796875 92.492188 22.605469 93.332031 25.414062 L 93.429688 25.71875 Z M 93.511719 25.710938 "/>
<path style=" stroke:none;fill-rule:nonzero;fill:rgb(18.039216%,17.254902%,42.745098%);fill-opacity:1;" d="M 52.359375 36.109375 C 52.609375 34.355469 52.863281 32.609375 53.09375 30.863281 C 53.386719 28.792969 53.679688 26.722656 53.972656 24.652344 C 54.285156 22.457031 54.59375 20.261719 54.90625 18.066406 C 54.960938 17.664062 55.019531 17.265625 55.070312 16.863281 C 55.089844 16.695312 55.144531 16.625 55.320312 16.628906 C 56.25 16.628906 57.175781 16.628906 58.089844 16.628906 C 58.261719 16.628906 58.316406 16.664062 58.289062 16.847656 C 57.769531 20.316406 57.257812 23.777344 56.746094 27.238281 C 56.578125 28.335938 56.417969 29.433594 56.261719 30.53125 C 56.25 30.640625 56.210938 30.746094 56.148438 30.835938 C 54.929688 32.542969 53.710938 34.253906 52.496094 35.964844 C 52.476562 36.019531 52.449219 36.09375 52.359375 36.109375 Z M 52.359375 36.109375 "/>
<path style=" stroke:none;fill-rule:nonzero;fill:rgb(92.941177%,51.372552%,14.117648%);fill-opacity:1;" d="M 53.980469 40.710938 C 53.265625 40.710938 52.550781 40.710938 51.839844 40.726562 C 51.652344 40.726562 51.628906 40.597656 51.585938 40.488281 C 50.800781 38.808594 50.015625 37.128906 49.226562 35.445312 C 48.222656 33.273438 47.207031 31.097656 46.1875 28.921875 C 45.992188 28.53125 46 28.0625 46.214844 27.679688 C 48.144531 24.082031 50.074219 20.480469 52.003906 16.878906 C 52.082031 16.703125 52.261719 16.597656 52.449219 16.625 C 52.882812 16.644531 53.316406 16.644531 53.746094 16.625 C 54.023438 16.625 54.023438 16.695312 53.914062 16.90625 C 52.953125 18.761719 51.992188 20.621094 51.039062 22.480469 C 49.953125 24.585938 48.867188 26.691406 47.78125 28.796875 C 47.722656 28.890625 47.722656 29.007812 47.78125 29.101562 C 49.320312 31.949219 50.863281 34.796875 52.402344 37.644531 C 52.417969 37.753906 52.460938 37.855469 52.527344 37.941406 Z M 53.980469 40.710938 "/>
<path style=" stroke:none;fill-rule:nonzero;fill:rgb(18.039216%,16.862746%,42.745098%);fill-opacity:1;" d="M 53.980469 40.710938 L 52.5 37.921875 C 52.433594 37.835938 52.386719 37.730469 52.371094 37.621094 C 53.171875 36.546875 53.980469 35.480469 54.78125 34.402344 C 54.851562 34.304688 54.96875 34.253906 55.085938 34.265625 C 55.914062 34.265625 56.738281 34.265625 57.5625 34.265625 C 57.703125 34.253906 57.835938 34.332031 57.890625 34.460938 C 59.023438 36.457031 60.160156 38.453125 61.300781 40.445312 C 61.355469 40.546875 61.535156 40.699219 61.21875 40.699219 C 58.828125 40.699219 56.433594 40.707031 54.039062 40.71875 C 54.019531 40.71875 54 40.714844 53.980469 40.710938 Z M 53.980469 40.710938 "/>
<path style=" stroke:none;fill-rule:nonzero;fill:rgb(18.431373%,17.254902%,42.745098%);fill-opacity:1;" d="M 103.996094 22.804688 C 103.996094 24.734375 103.996094 26.667969 103.996094 28.597656 C 103.996094 28.824219 103.949219 28.886719 103.71875 28.882812 C 103.074219 28.863281 102.429688 28.863281 101.789062 28.882812 C 101.539062 28.882812 101.472656 28.824219 101.472656 28.566406 C 101.472656 25.222656 101.472656 21.875 101.472656 18.523438 C 101.472656 17.996094 101.472656 17.46875 101.472656 16.945312 C 101.472656 16.769531 101.523438 16.722656 101.695312 16.726562 C 102.378906 16.726562 103.0625 16.726562 103.75 16.726562 C 103.945312 16.726562 104 16.78125 104 16.976562 C 103.996094 18.921875 103.996094 20.863281 103.996094 22.804688 Z M 103.996094 22.804688 "/>
<path style=" stroke:none;fill-rule:nonzero;fill:rgb(92.941177%,51.372552%,14.117648%);fill-opacity:1;" d="M 51.164062 16.625 C 49.050781 20.214844 46.96875 23.75 44.851562 27.347656 C 44.757812 26.875 44.628906 26.410156 44.46875 25.957031 C 44.121094 25.164062 44.324219 24.542969 44.773438 23.84375 C 46.25 21.542969 47.65625 19.195312 49.082031 16.863281 C 49.15625 16.695312 49.328125 16.597656 49.511719 16.609375 C 50.039062 16.632812 50.574219 16.625 51.164062 16.625 Z M 51.164062 16.625 "/>
<path style=" stroke:none;fill-rule:nonzero;fill:rgb(18.82353%,17.647059%,43.137255%);fill-opacity:1;" d="M 116.214844 34.796875 C 116.597656 33.699219 116.96875 32.660156 117.328125 31.609375 C 117.40625 31.390625 117.488281 31.273438 117.746094 31.300781 C 118.027344 31.320312 118.308594 31.320312 118.589844 31.300781 C 118.730469 31.300781 118.78125 31.339844 118.78125 31.488281 C 118.78125 32.988281 118.78125 34.484375 118.78125 35.980469 C 118.78125 36.128906 118.726562 36.160156 118.589844 36.167969 C 117.757812 36.203125 117.757812 36.210938 117.757812 35.386719 L 117.757812 32.851562 C 117.722656 32.871094 117.722656 32.96875 117.695312 33.042969 C 117.347656 34 116.988281 34.953125 116.664062 35.917969 C 116.5625 36.214844 116.367188 36.144531 116.160156 36.15625 C 115.953125 36.167969 115.835938 36.171875 115.753906 35.925781 C 115.433594 34.96875 115.078125 34.023438 114.734375 33.078125 C 114.707031 32.996094 114.671875 32.917969 114.648438 32.863281 L 114.648438 34.472656 C 114.648438 34.96875 114.648438 35.464844 114.664062 35.957031 C 114.664062 36.125 114.609375 36.167969 114.457031 36.160156 C 114.203125 36.144531 113.859375 36.242188 113.703125 36.109375 C 113.542969 35.980469 113.648438 35.617188 113.648438 35.351562 C 113.648438 34.082031 113.648438 32.816406 113.648438 31.550781 C 113.648438 31.3125 113.710938 31.253906 113.933594 31.273438 C 114.28125 31.304688 114.710938 31.140625 114.957031 31.335938 C 115.199219 31.53125 115.222656 31.949219 115.339844 32.269531 C 115.621094 33.117188 115.910156 33.929688 116.214844 34.796875 Z M 116.214844 34.796875 "/>
<path style=" stroke:none;fill-rule:nonzero;fill:rgb(18.82353%,17.647059%,43.137255%);fill-opacity:1;" d="M 86.894531 34.472656 L 86.894531 31.9375 C 86.894531 31.785156 86.894531 31.632812 86.894531 31.480469 C 86.894531 31.328125 86.917969 31.3125 87.054688 31.300781 C 87.898438 31.242188 87.898438 31.238281 87.898438 32.078125 C 87.898438 33.347656 87.898438 34.628906 87.898438 35.90625 C 87.898438 36.121094 87.828125 36.144531 87.632812 36.175781 C 87.066406 36.265625 86.742188 36.046875 86.476562 35.542969 C 86.0625 34.761719 85.566406 34.023438 85.105469 33.261719 L 84.949219 33.007812 L 84.949219 35.667969 C 84.949219 36.15625 84.949219 36.15625 84.460938 36.15625 C 83.929688 36.15625 83.929688 36.15625 83.929688 35.621094 C 83.929688 34.265625 83.929688 32.910156 83.929688 31.550781 C 83.929688 31.335938 83.996094 31.3125 84.179688 31.300781 C 84.753906 31.210938 85.089844 31.429688 85.355469 31.949219 C 85.746094 32.710938 86.234375 33.421875 86.683594 34.152344 C 86.738281 34.234375 86.792969 34.3125 86.894531 34.472656 Z M 86.894531 34.472656 "/>
<path style=" stroke:none;fill-rule:nonzero;fill:rgb(18.431373%,17.254902%,42.745098%);fill-opacity:1;" d="M 64.230469 40.226562 L 59.953125 34.273438 L 64.046875 34.273438 C 64.191406 34.273438 64.300781 34.273438 64.300781 34.472656 C 64.300781 36.378906 64.300781 38.289062 64.300781 40.199219 Z M 64.230469 40.226562 "/>
<path style=" stroke:none;fill-rule:nonzero;fill:rgb(18.431373%,17.254902%,42.745098%);fill-opacity:1;" d="M 131.46875 33.730469 C 131.46875 33.015625 131.46875 32.292969 131.46875 31.578125 C 131.46875 31.34375 131.539062 31.292969 131.753906 31.304688 C 132.1875 31.320312 132.617188 31.304688 133.050781 31.304688 C 134.070312 31.273438 134.957031 31.996094 135.136719 33.003906 C 135.332031 34.015625 135.25 35.011719 134.355469 35.730469 C 134 36.015625 133.554688 36.167969 133.097656 36.160156 C 132.65625 36.160156 132.214844 36.160156 131.769531 36.160156 C 131.546875 36.160156 131.460938 36.121094 131.46875 35.871094 C 131.484375 35.164062 131.46875 34.457031 131.46875 33.730469 Z M 132.476562 33.730469 C 132.476562 34.214844 132.476562 34.699219 132.476562 35.183594 C 132.476562 35.261719 132.433594 35.359375 132.582031 35.386719 C 132.917969 35.46875 133.273438 35.40625 133.558594 35.210938 C 133.847656 35.019531 134.039062 34.714844 134.09375 34.371094 C 134.15625 34.042969 134.167969 33.707031 134.128906 33.375 C 134.007812 32.414062 133.625 32.070312 132.65625 32.109375 C 132.496094 32.109375 132.457031 32.164062 132.460938 32.316406 C 132.492188 32.777344 132.488281 33.25 132.488281 33.726562 Z M 132.476562 33.730469 "/>
<path style=" stroke:none;fill-rule:nonzero;fill:rgb(18.431373%,17.254902%,42.745098%);fill-opacity:1;" d="M 75.851562 33.425781 C 76.355469 32.761719 76.859375 32.125 77.34375 31.484375 C 77.417969 31.363281 77.550781 31.296875 77.691406 31.304688 C 78.019531 31.320312 78.351562 31.304688 78.742188 31.304688 C 78.289062 31.875 77.867188 32.410156 77.441406 32.9375 C 77.015625 33.46875 77.019531 33.460938 77.394531 34.03125 L 78.789062 36.160156 C 78.375 36.160156 78.003906 36.160156 77.628906 36.160156 C 77.519531 36.160156 77.5 36.042969 77.453125 35.972656 C 77.085938 35.40625 76.722656 34.835938 76.351562 34.253906 C 76.042969 34.523438 75.75 34.761719 75.824219 35.242188 C 75.863281 35.464844 75.824219 35.707031 75.824219 35.9375 C 75.824219 36.167969 75.765625 36.191406 75.585938 36.167969 C 75.332031 36.152344 75.015625 36.246094 74.859375 36.121094 C 74.703125 36 74.808594 35.652344 74.804688 35.402344 C 74.804688 34.136719 74.804688 32.855469 74.804688 31.578125 C 74.804688 31.351562 74.859375 31.296875 75.085938 31.300781 C 75.839844 31.300781 75.839844 31.300781 75.839844 32.058594 L 75.839844 33.324219 C 75.84375 33.359375 75.847656 33.394531 75.851562 33.425781 Z M 75.851562 33.425781 "/>
<path style=" stroke:none;fill-rule:nonzero;fill:rgb(18.431373%,17.254902%,42.745098%);fill-opacity:1;" d="M 97.449219 36.167969 C 97.121094 36.167969 96.8125 36.167969 96.5 36.167969 C 96.386719 36.167969 96.351562 36.101562 96.320312 36.007812 C 96.246094 35.777344 96.160156 35.554688 96.101562 35.320312 C 96.097656 35.257812 96.066406 35.203125 96.015625 35.167969 C 95.96875 35.132812 95.910156 35.117188 95.847656 35.128906 C 95.394531 35.128906 94.941406 35.128906 94.492188 35.128906 C 94.433594 35.117188 94.371094 35.132812 94.324219 35.167969 C 94.277344 35.207031 94.246094 35.261719 94.242188 35.320312 C 94.160156 35.597656 94.121094 36.015625 93.9375 36.109375 C 93.660156 36.246094 93.273438 36.144531 92.929688 36.144531 C 92.988281 35.882812 93.070312 35.628906 93.179688 35.382812 C 93.652344 34.117188 94.128906 32.835938 94.59375 31.558594 C 94.628906 31.390625 94.789062 31.277344 94.957031 31.304688 C 95.652344 31.320312 95.652344 31.304688 95.890625 31.953125 L 97.367188 35.914062 C 97.386719 35.980469 97.414062 36.066406 97.449219 36.167969 Z M 95.199219 32.667969 L 95.132812 32.667969 C 94.953125 33.21875 94.769531 33.765625 94.578125 34.339844 C 94.941406 34.339844 95.261719 34.339844 95.585938 34.339844 C 95.695312 34.339844 95.761719 34.328125 95.714844 34.191406 C 95.539062 33.699219 95.367188 33.191406 95.199219 32.667969 Z M 95.199219 32.667969 "/>
<path style=" stroke:none;fill-rule:nonzero;fill:rgb(18.039216%,16.862746%,42.745098%);fill-opacity:1;" d="M 79.644531 33.734375 C 79.644531 33.007812 79.644531 32.28125 79.644531 31.550781 C 79.644531 31.347656 79.703125 31.296875 79.894531 31.296875 C 80.820312 31.296875 81.746094 31.296875 82.664062 31.296875 C 82.871094 31.296875 82.917969 31.355469 82.917969 31.550781 C 82.917969 32.09375 82.917969 32.09375 82.390625 32.09375 C 81.863281 32.09375 81.382812 32.09375 80.878906 32.09375 C 80.714844 32.09375 80.652344 32.136719 80.660156 32.3125 C 80.679688 32.613281 80.5625 33.007812 80.710938 33.191406 C 80.859375 33.375 81.277344 33.234375 81.574219 33.25 C 81.746094 33.25 81.917969 33.25 82.078125 33.25 C 82.242188 33.25 82.464844 33.167969 82.535156 33.289062 C 82.644531 33.476562 82.574219 33.722656 82.566406 33.945312 C 82.566406 34.089844 82.433594 34.03125 82.355469 34.035156 C 81.851562 34.035156 81.371094 34.035156 80.875 34.035156 C 80.714844 34.035156 80.648438 34.066406 80.652344 34.25 C 80.667969 34.550781 80.667969 34.855469 80.652344 35.15625 C 80.652344 35.328125 80.695312 35.382812 80.871094 35.378906 C 81.460938 35.378906 82.054688 35.378906 82.652344 35.378906 C 82.855469 35.378906 82.925781 35.417969 82.921875 35.632812 C 82.90625 36.164062 82.921875 36.164062 82.382812 36.164062 C 81.558594 36.164062 80.730469 36.164062 79.910156 36.164062 C 79.675781 36.164062 79.628906 36.097656 79.632812 35.878906 C 79.65625 35.171875 79.644531 34.457031 79.644531 33.734375 Z M 79.644531 33.734375 "/>
<path style=" stroke:none;fill-rule:nonzero;fill:rgb(18.039216%,16.862746%,42.745098%);fill-opacity:1;" d="M 128.828125 31.308594 C 129.300781 31.308594 129.773438 31.308594 130.246094 31.308594 C 130.40625 31.308594 130.445312 31.355469 130.449219 31.515625 C 130.449219 32.105469 130.464844 32.105469 129.878906 32.105469 C 129.386719 32.105469 128.894531 32.105469 128.402344 32.105469 C 128.246094 32.105469 128.1875 32.140625 128.195312 32.304688 C 128.210938 32.558594 128.210938 32.8125 128.195312 33.066406 C 128.195312 33.226562 128.238281 33.273438 128.398438 33.265625 C 128.902344 33.265625 129.382812 33.265625 129.875 33.265625 C 130.050781 33.265625 130.128906 33.300781 130.128906 33.5 C 130.128906 34.0625 130.128906 34.0625 129.589844 34.0625 C 129.207031 34.0625 128.835938 34.0625 128.441406 34.0625 C 128.265625 34.0625 128.1875 34.089844 128.203125 34.292969 C 128.21875 34.582031 128.21875 34.878906 128.203125 35.171875 C 128.203125 35.351562 128.238281 35.410156 128.433594 35.410156 C 129.023438 35.394531 129.621094 35.410156 130.214844 35.410156 C 130.398438 35.410156 130.464844 35.445312 130.464844 35.660156 C 130.464844 36.210938 130.464844 36.210938 129.917969 36.210938 C 129.082031 36.210938 128.246094 36.210938 127.410156 36.210938 C 127.21875 36.210938 127.179688 36.160156 127.183594 35.976562 C 127.183594 34.507812 127.183594 33.042969 127.183594 31.578125 C 127.183594 31.386719 127.230469 31.339844 127.417969 31.34375 C 127.882812 31.320312 128.355469 31.308594 128.828125 31.308594 Z M 128.828125 31.308594 "/>
<path style=" stroke:none;fill-rule:nonzero;fill:rgb(18.82353%,17.647059%,43.137255%);fill-opacity:1;" d="M 88.699219 31.308594 C 89.046875 31.308594 89.355469 31.308594 89.664062 31.308594 C 89.828125 31.308594 89.863281 31.402344 89.914062 31.515625 C 90.203125 32.144531 90.492188 32.78125 90.808594 33.460938 C 90.984375 33.09375 91.136719 32.769531 91.289062 32.449219 C 91.4375 32.128906 91.585938 31.8125 91.726562 31.488281 C 91.761719 31.371094 91.875 31.296875 91.992188 31.3125 C 92.285156 31.3125 92.578125 31.3125 92.921875 31.3125 C 92.734375 31.679688 92.566406 32.015625 92.394531 32.351562 C 92.074219 32.980469 91.75 33.605469 91.421875 34.230469 C 91.363281 34.347656 91.332031 34.476562 91.335938 34.609375 C 91.335938 35.054688 91.335938 35.5 91.335938 35.941406 C 91.335938 36.101562 91.3125 36.195312 91.128906 36.171875 C 90.859375 36.152344 90.507812 36.261719 90.339844 36.121094 C 90.167969 35.984375 90.265625 35.617188 90.289062 35.34375 C 90.335938 34.699219 90.179688 34.054688 89.835938 33.507812 C 89.429688 32.800781 89.085938 32.0625 88.699219 31.308594 Z M 88.699219 31.308594 "/>
<path style=" stroke:none;fill-rule:nonzero;fill:rgb(18.039216%,17.254902%,42.745098%);fill-opacity:1;" d="M 124.65625 34.15625 C 124.65625 34.742188 124.65625 35.328125 124.65625 35.914062 C 124.65625 36.101562 124.625 36.195312 124.40625 36.167969 C 124.152344 36.136719 123.804688 36.277344 123.648438 36.109375 C 123.492188 35.9375 123.605469 35.625 123.605469 35.375 C 123.605469 34.363281 123.605469 33.347656 123.605469 32.335938 C 123.605469 32.132812 123.554688 32.082031 123.355469 32.082031 C 123.011719 32.097656 122.671875 32.082031 122.328125 32.082031 C 122.1875 32.082031 122.144531 32.046875 122.140625 31.898438 C 122.113281 31.289062 122.109375 31.289062 122.714844 31.289062 C 123.753906 31.289062 124.789062 31.289062 125.828125 31.289062 C 126.058594 31.289062 126.136719 31.335938 126.128906 31.582031 C 126.105469 32.089844 126.128906 32.089844 125.625 32.089844 C 125.371094 32.089844 125.101562 32.089844 124.839844 32.089844 C 124.675781 32.089844 124.636719 32.140625 124.636719 32.296875 C 124.660156 32.921875 124.65625 33.535156 124.65625 34.15625 Z M 124.65625 34.15625 "/>
<path style=" stroke:none;fill-rule:nonzero;fill:rgb(18.039216%,17.254902%,42.745098%);fill-opacity:1;" d="M 107.066406 33.71875 C 107.066406 32.988281 107.066406 32.261719 107.066406 31.535156 C 107.066406 31.339844 107.125 31.304688 107.304688 31.304688 C 108.089844 31.304688 108.089844 31.304688 108.089844 32.0625 C 108.089844 33.078125 108.089844 34.105469 108.089844 35.125 C 108.089844 35.324219 108.144531 35.378906 108.34375 35.378906 C 108.882812 35.363281 109.429688 35.378906 109.96875 35.378906 C 110.15625 35.378906 110.222656 35.410156 110.222656 35.617188 C 110.222656 36.171875 110.222656 36.171875 109.679688 36.171875 C 108.921875 36.171875 108.191406 36.160156 107.445312 36.171875 C 107.160156 36.171875 107.050781 36.128906 107.0625 35.804688 C 107.089844 35.113281 107.066406 34.414062 107.066406 33.71875 Z M 107.066406 33.71875 "/>
<path style=" stroke:none;fill-rule:nonzero;fill:rgb(17.647059%,16.862746%,42.352942%);fill-opacity:1;" d="M 112.261719 33.769531 C 112.261719 34.496094 112.261719 35.222656 112.261719 35.953125 C 112.261719 36.121094 112.214844 36.179688 112.042969 36.171875 C 111.792969 36.152344 111.449219 36.253906 111.289062 36.125 C 111.128906 35.996094 111.238281 35.632812 111.234375 35.367188 C 111.234375 34.097656 111.234375 32.816406 111.234375 31.542969 C 111.234375 31.347656 111.28125 31.277344 111.484375 31.292969 C 111.738281 31.3125 112.070312 31.210938 112.214844 31.335938 C 112.355469 31.464844 112.265625 31.828125 112.265625 32.097656 C 112.265625 32.65625 112.261719 33.210938 112.261719 33.769531 Z M 112.261719 33.769531 "/>
<path style=" stroke:none;fill-rule:nonzero;fill:rgb(17.647059%,16.862746%,42.352942%);fill-opacity:1;" d="M 120.175781 33.699219 C 120.175781 32.972656 120.175781 32.242188 120.175781 31.515625 C 120.175781 31.34375 120.222656 31.285156 120.394531 31.300781 C 120.644531 31.316406 120.992188 31.214844 121.148438 31.34375 C 121.308594 31.472656 121.199219 31.835938 121.203125 32.105469 C 121.203125 33.371094 121.203125 34.636719 121.203125 35.925781 C 121.203125 36.125 121.152344 36.179688 120.949219 36.179688 C 120.699219 36.160156 120.375 36.257812 120.21875 36.132812 C 120.0625 36.007812 120.175781 35.660156 120.167969 35.414062 C 120.167969 34.839844 120.175781 34.273438 120.175781 33.699219 Z M 120.175781 33.699219 "/>
<path style="fill-rule:nonzero;fill:rgb(92.156863%,50.980395%,13.725491%);fill-opacity:1;stroke-width:1;stroke-linecap:butt;stroke-linejoin:miter;stroke:rgb(92.156863%,50.980395%,13.725491%);stroke-opacity:1;stroke-miterlimit:10;" d="M 455.564782 169.835407 C 456.805898 165.765277 458.015986 161.833902 459.164018 157.902527 C 459.381213 157.17792 460.172424 156.144971 458.512432 155.774959 C 459.893173 155.358696 461.289429 155.081187 462.716712 154.942433 L 460.296536 163.236863 C 461.041205 163.236863 461.118775 162.71268 461.382512 162.404337 C 462.127182 161.263467 463.213158 160.384689 464.469788 159.860506 C 464.919692 159.6755 465.447166 159.721751 465.850529 159.99926 C 466.253891 160.276769 466.486601 160.739284 466.471087 161.232633 C 466.502115 161.833902 466.409031 162.419754 466.191836 162.974772 C 465.695389 164.454819 465.183429 165.981117 464.702497 167.399496 C 464.593899 167.769508 464.36119 168.124102 464.624927 168.555783 C 465.38511 168.432445 465.555764 167.553667 466.222863 167.199073 C 466.036696 168.756206 464.097453 170.297922 462.794281 170.066664 C 461.785875 169.881658 461.41354 169.064549 461.785875 167.908262 C 462.282321 166.227792 462.856337 164.562739 463.383811 162.913103 C 463.492409 162.543091 463.833716 162.095994 463.445867 161.803068 C 463.042504 161.525559 462.623628 161.988074 462.328863 162.265582 C 460.622329 163.85355 459.427755 165.904032 458.869253 168.170354 C 458.558974 169.573315 457.87636 170.097498 456.526647 169.850824 C 456.200854 169.81999 455.890575 169.804572 455.564782 169.835407 Z M 460.327564 163.344783 C 460.281022 163.437286 460.23448 163.545207 460.203452 163.653127 C 460.203452 163.653127 460.31205 163.730212 460.374106 163.761047 L 460.529245 163.452704 Z M 460.327564 163.344783 " transform="matrix(0.25179,0,0,0.25337,0.00837987,0)"/>
<path style="fill-rule:nonzero;fill:rgb(92.156863%,50.980395%,13.725491%);fill-opacity:1;stroke-width:1;stroke-linecap:butt;stroke-linejoin:miter;stroke:rgb(92.156863%,50.980395%,13.725491%);stroke-opacity:1;stroke-miterlimit:10;" d="M 307.732387 170.14375 C 305.653518 165.826946 303.729789 161.833902 301.666434 157.563349 C 300.673542 161.078461 299.665135 164.316064 298.765326 167.553667 C 298.408505 168.78704 299.215231 169.249555 300.192609 169.696652 L 295.507397 169.696652 C 297.834489 169.203303 297.943087 167.152821 298.501589 165.4261 C 299.230745 163.098109 299.88233 160.754701 300.595972 158.42671 C 301.294099 156.083302 301.201016 156.144971 299.013549 155.49745 C 299.478968 154.973267 300.021956 155.28161 300.533916 155.17369 C 303.140259 154.664924 304.67614 155.620788 305.544921 158.241704 C 306.429216 160.492609 307.453136 162.697263 308.601168 164.824831 C 309.392379 162.065159 310.121535 159.613831 310.773121 157.147086 C 311.067886 156.052468 310.012937 155.867462 309.392379 155.297027 L 313.968994 155.297027 C 311.564332 155.867462 311.533304 158.010447 310.974802 159.752586 C 309.966395 162.758932 309.113128 165.85778 308.182292 168.910377 C 308.073694 169.21872 307.996124 169.511646 307.732387 170.14375 Z M 307.732387 170.14375 " transform="matrix(0.25179,0,0,0.25337,0.00837987,0)"/>
<path style="fill-rule:nonzero;fill:rgb(92.156863%,50.980395%,13.725491%);fill-opacity:1;stroke-width:1;stroke-linecap:butt;stroke-linejoin:miter;stroke:rgb(92.156863%,50.980395%,13.725491%);stroke-opacity:1;stroke-miterlimit:10;" d="M 362.325965 170.051247 C 360.805598 168.324525 361.007279 167.754091 363.753248 166.119872 C 362.527646 165.657357 361.782976 164.408567 361.969144 163.113526 C 362.186339 161.741399 363.179232 160.615947 364.513431 160.215101 C 365.9252 159.582997 367.538651 159.629249 368.903878 160.307603 C 369.664061 160.70845 370.4863 160.415524 371.246484 160.523444 C 371.525735 160.523444 371.975639 160.338438 371.913583 160.908873 C 371.867042 161.278884 371.836014 161.787651 371.261998 161.710565 C 370.408731 161.602645 370.393217 161.926405 370.501814 162.71268 C 370.781065 164.716911 368.996961 166.443632 366.499216 166.536135 C 365.909686 166.536135 365.304642 166.443632 364.715112 166.459049 C 364.125582 166.474466 363.613622 166.690307 363.56708 167.291576 C 363.505024 167.892845 364.110068 167.877428 364.559973 168.000765 C 365.583893 168.201188 366.5923 168.478697 367.554164 168.848709 C 368.516029 169.172469 369.198643 170.004996 369.338268 171.007111 C 369.493408 171.993809 369.074531 172.995924 368.252292 173.581776 C 366.5923 175.030989 362.046713 175.123492 360.324665 173.735948 C 359.781677 173.427604 359.471398 172.826335 359.533454 172.209649 C 359.579996 171.592963 359.998873 171.053362 360.572889 170.837522 C 361.146905 170.544596 361.720921 170.282504 362.325965 170.051247 Z M 364.466889 174.198462 C 364.885766 174.136794 365.320156 174.090542 365.739033 173.982622 C 366.483702 173.859285 367.042204 173.242599 367.073232 172.487158 C 367.073232 171.670049 366.51473 171.28462 365.84763 171.053362 C 365.180531 170.837522 364.559973 170.68335 363.846331 170.513762 C 362.868953 170.25167 361.845032 170.791271 361.503725 171.762551 C 361.395128 172.209649 361.457184 172.687581 361.689893 173.088427 C 361.922602 173.489273 362.310451 173.782199 362.760355 173.890119 C 363.303343 174.090542 363.877359 174.198462 364.466889 174.198462 Z M 367.926499 162.003491 C 368.004069 161.063044 367.926499 160.523444 367.243886 160.307603 C 366.685383 160.138015 366.095853 160.384689 365.816602 160.893455 C 365.071933 161.988074 364.653056 163.267698 364.606515 164.578156 C 364.482403 165.148591 364.777168 165.719026 365.320156 165.934866 C 365.878658 166.135289 366.483702 165.873197 366.731925 165.349014 C 367.399025 164.346899 367.802388 163.190612 367.926499 162.003491 Z M 367.926499 162.003491 " transform="matrix(0.25179,0,0,0.25337,0.00837987,0)"/>
<path style="fill-rule:nonzero;fill:rgb(92.156863%,50.980395%,13.725491%);fill-opacity:1;stroke-width:1;stroke-linecap:butt;stroke-linejoin:miter;stroke:rgb(92.156863%,50.980395%,13.725491%);stroke-opacity:1;stroke-miterlimit:10;" d="M 517.574026 170.051247 C 516.007117 168.401611 516.224313 167.846593 518.954767 166.042786 C 517.775707 165.626523 517.031038 164.454819 517.155149 163.206029 C 517.263747 161.895571 518.117014 160.754701 519.342616 160.276769 C 520.847469 159.490494 522.647086 159.475077 524.182967 160.230518 C 525.113804 160.70845 526.184266 160.230518 527.099589 160.508027 C 527.270243 161.772233 526.370434 161.664313 525.563708 161.633479 C 526.137724 164.346899 524.570816 166.258626 521.793819 166.412798 C 521.173262 166.412798 520.53719 166.304878 519.901118 166.335712 C 519.389158 166.258626 518.908225 166.597804 518.799628 167.10657 C 518.722058 167.677005 519.296074 167.738673 519.699437 167.846593 C 520.61476 168.108685 521.576624 168.278274 522.476433 168.602034 C 523.546895 168.864126 524.338107 169.758321 524.477732 170.852939 C 524.6639 172.117146 524.012314 173.335102 522.848768 173.859285 C 520.645787 174.938486 518.054958 174.938486 515.851978 173.859285 C 515.138336 173.61261 514.688432 172.918838 514.734974 172.163398 C 514.79703 171.423374 515.30899 170.806688 516.022631 170.590848 C 516.503564 170.436676 517.00001 170.267087 517.574026 170.051247 Z M 519.575325 174.183045 C 520.009716 174.152211 520.444106 174.090542 520.862983 173.998039 C 521.654194 173.890119 522.259238 173.227181 522.274752 172.440906 C 522.274752 171.623797 521.685222 171.269202 521.002608 171.053362 C 520.335508 170.837522 519.714951 170.667933 519.063365 170.513762 C 518.070472 170.236253 517.031038 170.822105 516.751787 171.808803 C 516.472536 172.85717 517.07758 173.458439 517.946361 173.859285 C 518.458321 174.090542 519.016823 174.198462 519.590839 174.183045 Z M 523.143533 161.756816 C 523.190075 161.047627 523.065963 160.538861 522.507461 160.323021 C 521.964473 160.10718 521.343915 160.323021 521.04915 160.831787 C 520.304481 161.910988 519.87009 163.175195 519.79252 164.485653 C 519.637381 165.102339 519.978688 165.719026 520.552704 165.934866 C 521.12672 166.089038 521.71625 165.811529 521.964473 165.287345 C 522.647086 164.223561 523.050449 163.021023 523.143533 161.756816 Z M 523.143533 161.756816 " transform="matrix(0.25179,0,0,0.25337,0.00837987,0)"/>
<path style="fill-rule:nonzero;fill:rgb(92.156863%,50.980395%,13.725491%);fill-opacity:1;stroke-width:1;stroke-linecap:butt;stroke-linejoin:miter;stroke:rgb(92.156863%,50.980395%,13.725491%);stroke-opacity:1;stroke-miterlimit:10;" d="M 422.318395 159.197568 C 422.644188 158.025864 422.985495 156.85416 423.326802 155.667039 C 423.435399 155.17369 423.776706 155.204524 424.149041 155.204524 C 427.577623 155.204524 431.021719 155.204524 434.450301 155.204524 C 434.884692 155.204524 435.257026 155.204524 435.070859 155.821211 C 434.729552 156.946663 434.434787 158.10295 434.124508 159.24382 C 433.597034 159.135899 433.783202 158.796722 433.752174 158.565465 C 433.752174 157.301258 432.743767 156.268308 431.487138 156.222057 C 431.052747 156.160388 430.835552 156.222057 430.71144 156.684571 C 429.625464 160.384689 428.50846 164.084807 427.422484 167.784925 C 427.034635 169.1108 427.9965 169.326641 428.94285 169.665818 L 421.852977 169.665818 C 424.133527 169.403726 424.257638 167.522833 424.723057 165.934866 C 425.715949 162.728097 426.631272 159.521328 427.577623 156.31456 C 425.886603 156.114137 425.374643 156.407063 422.318395 159.197568 Z M 422.318395 159.197568 " transform="matrix(0.25179,0,0,0.25337,0.00837987,0)"/>
<path style="fill-rule:nonzero;fill:rgb(92.156863%,50.980395%,13.725491%);fill-opacity:1;stroke-width:1;stroke-linecap:butt;stroke-linejoin:miter;stroke:rgb(92.156863%,50.980395%,13.725491%);stroke-opacity:1;stroke-miterlimit:10;" d="M 325.713051 160.693032 L 327.776406 160.122598 C 329.40537 159.706334 329.451912 159.706334 329.653593 161.402222 C 329.808733 162.651011 329.824247 163.915218 329.932844 165.456934 C 331.204988 163.683961 332.306478 162.095994 333.438996 160.523444 C 333.656192 160.245935 333.764789 159.660083 334.276749 159.845089 C 334.773196 160.014677 334.478431 160.477192 334.524973 160.847204 C 334.757682 162.92852 334.974877 165.025254 335.2231 167.306993 C 336.122909 166.536135 336.867578 165.611106 337.441595 164.578156 C 337.953555 163.822715 337.891499 162.8206 337.286455 162.142245 C 336.758981 161.664313 336.696925 160.847204 337.14683 160.292186 C 337.441595 159.829672 338.015611 159.660083 338.527571 159.845089 C 339.19467 160.10718 339.598033 160.770118 339.535977 161.46389 C 339.411866 162.789766 338.915419 164.053973 338.077666 165.086922 C 336.758981 166.844478 335.2231 168.432445 333.516566 169.81999 C 332.911522 170.344173 332.725355 170.066664 332.663299 169.403726 C 332.492646 167.584502 332.290964 165.765277 332.073769 163.622292 L 329.002008 167.831176 C 328.567617 168.432445 328.133227 169.064549 327.683322 169.681235 C 327.543697 169.866241 327.419585 170.14375 327.12482 170.020413 C 326.845569 169.897075 326.985195 169.619567 326.985195 169.403726 C 326.985195 167.152821 327.04725 164.917334 327.031736 162.697263 C 327.04725 161.787651 326.907625 160.878038 325.713051 160.693032 Z M 325.713051 160.693032 " transform="matrix(0.25179,0,0,0.25337,0.00837987,0)"/>
<path style="fill-rule:nonzero;fill:rgb(92.156863%,50.980395%,13.725491%);fill-opacity:1;stroke-width:1;stroke-linecap:butt;stroke-linejoin:miter;stroke:rgb(92.156863%,50.980395%,13.725491%);stroke-opacity:1;stroke-miterlimit:10;" d="M 469.465278 169.773738 C 470.116864 167.677005 470.737422 165.626523 471.342466 163.576041 C 471.497605 163.067275 471.637231 162.573926 471.745828 162.065159 C 471.94751 161.063044 471.900968 161.016793 470.489199 160.523444 C 472.071621 160.230518 473.312737 159.983843 474.584881 159.768003 C 475.143383 159.6755 475.096841 160.014677 474.988243 160.415524 C 474.631422 161.24805 474.429741 162.142245 474.383199 163.051857 C 475.019271 162.959355 475.143383 162.419754 475.453662 162.049742 C 476.182817 161.047627 477.191224 160.276769 478.35477 159.814254 C 478.820188 159.629249 479.363176 159.6755 479.782053 159.968426 C 480.185415 160.261352 480.433638 160.754701 480.40261 161.263467 C 480.387097 162.219331 480.185415 163.159778 479.813081 164.038556 C 479.239064 165.53402 478.78916 167.060318 478.432339 168.617451 C 479.363176 168.617451 479.502802 167.723256 480.231957 167.615336 C 479.906164 168.509531 479.254578 169.264972 478.416825 169.71207 C 477.749726 170.205419 476.834403 170.205419 476.167303 169.71207 C 475.453662 169.1108 475.701885 168.324525 475.903566 167.599919 C 476.35347 166.07362 476.896459 164.593573 477.315335 163.03644 C 477.454961 162.60476 477.842809 162.034325 477.315335 161.725982 C 476.803375 161.433056 476.415526 161.957239 476.105247 162.281 C 474.383199 163.838133 473.173111 165.888614 472.630123 168.154937 C 472.3819 169.496229 471.761342 170.082081 470.396115 169.804572 C 470.085836 169.773738 469.775557 169.758321 469.465278 169.773738 Z M 474.476283 163.267698 L 474.30563 163.113526 C 474.243574 163.190612 474.166004 163.267698 474.134976 163.344783 C 474.119462 163.437286 474.243574 163.483538 474.30563 163.545207 Z M 474.476283 163.267698 " transform="matrix(0.25179,0,0,0.25337,0.00837987,0)"/>
<path style="fill-rule:nonzero;fill:rgb(92.156863%,50.980395%,13.725491%);fill-opacity:1;stroke-width:1;stroke-linecap:butt;stroke-linejoin:miter;stroke:rgb(92.156863%,50.980395%,13.725491%);stroke-opacity:1;stroke-miterlimit:10;" d="M 402.615683 174.152211 C 403.205213 173.936371 403.670632 173.443022 403.872313 172.826335 C 403.965397 172.610495 404.042966 172.379238 404.105022 172.14798 C 405.097915 168.540366 406.106321 164.932751 407.099214 161.402222 C 406.742393 160.92429 405.377166 161.756816 405.98221 160.400106 C 406.044265 160.276769 406.168377 160.076346 406.261461 160.076346 C 407.59566 160.076346 407.921453 158.997145 408.464441 158.149201 C 409.705557 156.299143 411.225924 154.927016 413.615071 155.004101 C 413.863294 155.019518 414.096004 155.050353 414.328713 155.096604 C 415.02684 155.266193 415.554315 155.636205 415.337119 156.42248 C 415.25955 156.715406 415.073382 156.946663 414.825159 157.085418 C 414.561422 157.208755 414.266657 157.239589 414.00292 157.131669 C 413.056569 156.869577 413.33582 156.222057 413.677127 155.60537 C 412.885916 155.327862 412.482553 155.836628 412.094705 156.252891 C 411.365549 157.162503 410.838075 158.21087 410.558824 159.336323 C 410.403684 159.814254 410.496768 160.076346 411.086298 160.045512 C 411.334521 160.045512 411.815453 159.845089 411.753398 160.400106 C 411.753398 160.770118 411.675828 161.325136 411.117326 161.217216 C 409.907238 160.985958 409.783127 161.803068 409.550417 162.635594 C 408.898832 165.225677 408.123134 167.784925 407.207811 170.282504 C 406.757907 171.747134 405.858098 173.026758 404.632496 173.951788 C 403.763715 174.553057 402.693253 174.799731 401.638305 174.630143 C 400.986719 174.522223 400.335133 174.21388 400.474759 173.39677 C 400.536814 173.057593 400.722982 172.780084 401.017747 172.610495 C 401.296998 172.440906 401.638305 172.410072 401.948584 172.533409 C 402.724281 172.687581 402.817365 173.258016 402.507086 173.920954 C 402.5226 173.936371 402.584655 173.998039 402.615683 174.152211 Z M 402.615683 174.152211 " transform="matrix(0.25179,0,0,0.25337,0.00837987,0)"/>
<path style="fill-rule:nonzero;fill:rgb(92.156863%,50.980395%,13.725491%);fill-opacity:1;stroke-width:1;stroke-linecap:butt;stroke-linejoin:miter;stroke:rgb(92.156863%,50.980395%,13.725491%);stroke-opacity:1;stroke-miterlimit:10;" d="M 352.75386 168.632869 C 352.459095 169.203303 351.962648 169.634984 351.357604 169.866241 C 350.9077 170.14375 350.349198 170.190001 349.868266 169.989578 C 349.371819 169.789155 348.999485 169.372892 348.859859 168.864126 C 348.70472 168.509531 348.62715 168.108685 348.642664 167.707839 C 348.62715 164.701493 350.163031 161.895571 352.722832 160.307603 C 354.134601 159.382574 355.03441 159.613831 355.903191 160.985958 C 356.337581 159.444243 357.516641 160.10718 358.41645 160.060929 C 359.00598 160.060929 358.633645 160.523444 358.571589 160.754701 C 357.951032 162.897686 357.283932 165.025254 356.694402 167.183656 C 356.57029 167.615336 356.042816 168.185771 356.632346 168.555783 C 357.23739 168.941212 357.423557 168.170354 357.74935 167.846593 C 357.873462 167.723256 357.966546 167.507416 358.214769 167.569085 C 357.780378 169.126218 356.322067 170.174584 354.693103 170.097498 C 353.77778 169.912493 353.622641 169.295806 353.70021 168.478697 C 353.70021 168.216605 354.305254 167.661588 353.420959 167.692422 C 353.85535 166.690307 354.305254 165.765277 354.693103 164.793996 C 355.220577 163.668544 355.406744 162.404337 355.251605 161.186381 C 355.251605 160.81637 355.049924 160.477192 354.724131 160.307603 C 354.36731 160.168849 353.963947 160.323021 353.77778 160.646781 C 352.241899 162.697263 351.404146 165.179425 351.373118 167.723256 C 351.373118 168.432445 351.745453 168.879543 352.552178 168.46328 Z M 352.75386 168.632869 " transform="matrix(0.25179,0,0,0.25337,0.00837987,0)"/>
<path style="fill-rule:nonzero;fill:rgb(92.156863%,50.980395%,13.725491%);fill-opacity:1;stroke-width:1;stroke-linecap:butt;stroke-linejoin:miter;stroke:rgb(92.156863%,50.980395%,13.725491%);stroke-opacity:1;stroke-miterlimit:10;" d="M 528.992291 160.723867 C 529.938641 160.446358 530.869478 160.138015 531.815829 159.89134 C 532.777693 159.644666 532.715638 160.446358 532.824235 160.893455 C 533.181056 162.358085 533.367223 163.868967 533.367223 165.395265 C 533.367223 166.397381 533.460307 167.291576 533.522363 168.632869 C 534.716937 167.121987 535.725343 165.472351 536.516555 163.730212 C 536.749264 163.14436 536.516555 162.466006 535.942539 162.17308 C 535.663288 162.034325 535.446092 161.772233 535.353009 161.46389 C 535.259925 161.14013 535.306467 160.800953 535.47712 160.523444 C 535.709829 159.937592 536.345901 159.629249 536.966459 159.798837 C 537.664587 159.937592 538.161033 160.569695 538.145519 161.278884 C 538.130005 162.126828 537.881782 162.943937 537.447391 163.668544 C 535.725343 166.875313 533.615447 169.850824 531.164243 172.533409 C 530.450602 173.412187 529.535279 174.105959 528.495844 174.53764 C 527.766689 174.907652 526.897908 174.64556 526.494545 173.936371 C 526.308378 173.689696 526.246322 173.381353 526.308378 173.07301 C 526.35492 172.780084 526.541087 172.517992 526.78931 172.332986 C 527.068561 172.101729 527.425382 171.993809 527.797717 172.024643 C 528.170051 172.055477 528.495844 172.240483 528.728553 172.517992 C 529.100888 172.872587 529.442195 173.165513 529.985183 172.826335 C 530.497143 172.610495 530.83845 172.086312 530.822936 171.515877 C 530.822936 168.524948 530.745366 165.518603 530.512657 162.527674 C 530.590227 161.602645 529.907613 160.81637 528.992291 160.723867 Z M 528.992291 160.723867 " transform="matrix(0.25179,0,0,0.25337,0.00837987,0)"/>
<path style="fill-rule:nonzero;fill:rgb(92.156863%,50.980395%,13.725491%);fill-opacity:1;stroke-width:1;stroke-linecap:butt;stroke-linejoin:miter;stroke:rgb(92.156863%,50.980395%,13.725491%);stroke-opacity:1;stroke-miterlimit:10;" d="M 401.995125 163.005606 C 401.839986 166.366546 399.466352 169.21872 396.192909 170.004996 C 393.60208 170.513762 391.864518 168.879543 392.190311 166.274043 C 392.624702 163.113526 394.967308 160.538861 398.085611 159.814254 C 399.047476 159.536746 400.08691 159.752586 400.862607 160.384689 C 401.653819 161.016793 402.072695 162.003491 401.995125 163.005606 Z M 399.342241 162.003491 C 399.342241 161.35597 399.435324 160.615947 398.690655 160.353855 C 397.945985 160.10718 397.387483 160.70845 396.968607 161.35597 C 396.922065 161.433056 396.891037 161.494725 396.844495 161.57181 C 395.758519 163.529789 395.091419 165.672774 394.843196 167.892845 C 394.78114 168.602034 394.796654 169.326641 395.572352 169.604149 C 396.363563 169.897075 396.813467 169.249555 397.170288 168.663703 C 398.39589 166.644055 399.125045 164.362316 399.295699 162.003491 Z M 399.342241 162.003491 " transform="matrix(0.25179,0,0,0.25337,0.00837987,0)"/>
<path style="fill-rule:nonzero;fill:rgb(92.156863%,50.980395%,13.725491%);fill-opacity:1;stroke-width:1;stroke-linecap:butt;stroke-linejoin:miter;stroke:rgb(92.156863%,50.980395%,13.725491%);stroke-opacity:1;stroke-miterlimit:10;" d="M 493.356756 163.005606 C 493.201616 166.351129 490.874524 169.187886 487.632109 170.004996 C 484.979225 170.560013 483.195121 168.925794 483.582969 166.274043 C 484.01736 163.098109 486.37548 160.538861 489.493783 159.829672 C 490.455648 159.582997 491.479568 159.798837 492.239752 160.430941 C 492.999935 161.063044 493.418811 162.018908 493.356756 163.005606 Z M 490.703871 161.926405 C 490.703871 161.278884 490.796955 160.554278 490.036771 160.307603 C 489.292102 160.045512 488.795655 160.585112 488.392293 161.170964 C 488.314723 161.263467 488.252667 161.371387 488.206126 161.46389 C 487.120149 163.421869 486.437536 165.580271 486.204826 167.800342 C 486.142771 168.509531 486.142771 169.234138 486.933982 169.511646 C 487.725193 169.773738 488.175098 169.141635 488.547432 168.509531 C 489.75752 166.520718 490.486676 164.269813 490.703871 161.941822 Z M 490.703871 161.926405 " transform="matrix(0.25179,0,0,0.25337,0.00837987,0)"/>
<path style="fill-rule:nonzero;fill:rgb(92.156863%,50.980395%,13.725491%);fill-opacity:1;stroke-width:1;stroke-linecap:butt;stroke-linejoin:miter;stroke:rgb(92.156863%,50.980395%,13.725491%);stroke-opacity:1;stroke-miterlimit:10;" d="M 513.509372 163.005606 C 513.338719 166.366546 510.965085 169.21872 507.676128 170.004996 C 505.085299 170.482927 503.363251 168.864126 503.735586 166.243209 C 504.169976 163.082692 506.512582 160.523444 509.630885 159.814254 C 510.59275 159.536746 511.632185 159.768003 512.392368 160.400106 C 513.168065 161.03221 513.586942 162.003491 513.509372 163.005606 Z M 510.856487 161.941822 C 510.856487 161.294302 510.934057 160.569695 510.189388 160.307603 C 509.444718 160.045512 508.932758 160.600529 508.544909 161.186381 C 508.467339 161.278884 508.405284 161.386804 508.343228 161.494725 C 507.272766 163.437286 506.590152 165.595688 506.357443 167.815759 C 506.295387 168.524948 506.295387 169.249555 507.086598 169.527064 C 507.87781 169.789155 508.327714 169.157052 508.684535 168.524948 C 509.910137 166.520718 510.639292 164.269813 510.856487 161.941822 Z M 510.856487 161.941822 " transform="matrix(0.25179,0,0,0.25337,0.00837987,0)"/>
<path style="fill-rule:nonzero;fill:rgb(92.156863%,50.980395%,13.725491%);fill-opacity:1;stroke-width:1;stroke-linecap:butt;stroke-linejoin:miter;stroke:rgb(92.156863%,50.980395%,13.725491%);stroke-opacity:1;stroke-miterlimit:10;" d="M 322.284469 167.368662 C 320.981297 169.634984 317.444118 170.775853 315.473846 169.727487 C 314.620579 169.234138 314.108619 168.324525 314.124133 167.337827 C 313.922452 163.653127 317.738883 159.721751 321.446716 159.752586 C 323.044652 159.752586 323.773808 160.847204 323.137736 162.327251 C 322.299983 164.100224 320.608963 165.302762 318.669719 165.53402 C 316.963185 165.873197 316.792532 166.027369 317.025241 167.245324 C 317.242436 168.478697 318.173273 168.833292 319.5385 168.524948 C 320.003919 168.417028 320.453823 168.262857 320.888214 168.062434 C 321.30709 167.892845 321.694939 167.677005 322.284469 167.368662 Z M 317.226922 165.256511 C 319.057568 165.071505 320.531393 163.683961 320.826158 161.864736 C 320.934756 161.417639 321.105409 160.862621 320.562421 160.569695 C 320.019433 160.276769 319.647098 160.693032 319.321305 161.047627 C 318.281871 162.250165 317.552715 163.699378 317.226922 165.256511 Z M 317.226922 165.256511 " transform="matrix(0.25179,0,0,0.25337,0.00837987,0)"/>
<path style="fill-rule:nonzero;fill:rgb(92.156863%,50.980395%,13.725491%);fill-opacity:1;stroke-width:1;stroke-linecap:butt;stroke-linejoin:miter;stroke:rgb(92.156863%,50.980395%,13.725491%);stroke-opacity:1;stroke-miterlimit:10;" d="M 381.842509 167.353244 C 380.477282 169.465395 377.932995 170.482927 375.481791 169.912493 C 374.333759 169.573315 373.558062 168.494114 373.620117 167.291576 C 373.464978 163.637709 377.188325 159.768003 380.86513 159.752586 C 382.525123 159.752586 383.285306 160.847204 382.602692 162.373503 C 381.780453 164.100224 380.135975 165.287345 378.22776 165.518603 C 376.474684 165.888614 376.22646 166.07362 376.521225 167.291576 C 376.81599 168.509531 377.700285 168.78704 379.081027 168.524948 C 380.027377 168.216605 380.958214 167.831176 381.842509 167.353244 Z M 376.707393 165.225677 C 378.522525 165.071505 380.011863 163.714795 380.306628 161.910988 C 380.415226 161.46389 380.616907 160.908873 380.089433 160.600529 C 379.577473 160.292186 379.096541 160.723867 378.755234 161.093878 C 377.762341 162.296417 377.0487 163.714795 376.707393 165.225677 Z M 376.707393 165.225677 " transform="matrix(0.25179,0,0,0.25337,0.00837987,0)"/>
<path style="fill-rule:nonzero;fill:rgb(92.156863%,50.980395%,13.725491%);fill-opacity:1;stroke-width:1;stroke-linecap:butt;stroke-linejoin:miter;stroke:rgb(92.156863%,50.980395%,13.725491%);stroke-opacity:1;stroke-miterlimit:10;" d="M 441.447091 167.491999 C 440.174947 169.604149 436.792907 170.745019 434.807122 169.773738 C 433.922827 169.342058 433.364325 168.432445 433.364325 167.445747 C 433.054046 163.776464 436.932533 159.706334 440.686908 159.752586 C 441.354007 159.660083 442.005593 159.953009 442.362414 160.508027 C 442.719235 161.063044 442.719235 161.787651 442.362414 162.342668 C 441.524661 164.100224 439.818127 165.31818 437.878883 165.53402 C 436.187863 165.873197 436.01721 166.027369 436.249919 167.260741 C 436.436086 168.262857 437.366923 168.771623 438.670095 168.586617 C 439.647473 168.432445 440.407657 167.754091 441.447091 167.491999 Z M 436.4516 165.194842 C 438.22019 165.071505 439.678501 163.776464 440.019808 162.049742 C 440.14392 161.525559 440.423171 160.862621 439.756071 160.554278 C 439.073457 160.245935 438.747664 160.785535 438.437385 161.170964 C 437.475521 162.342668 436.792907 163.730212 436.436086 165.194842 Z M 436.4516 165.194842 " transform="matrix(0.25179,0,0,0.25337,0.00837987,0)"/>
<path style="fill-rule:nonzero;fill:rgb(92.156863%,50.980395%,13.725491%);fill-opacity:1;stroke-width:1;stroke-linecap:butt;stroke-linejoin:miter;stroke:rgb(92.156863%,50.980395%,13.725491%);stroke-opacity:1;stroke-miterlimit:10;" d="M 500.849992 167.707839 C 500.275976 168.740789 499.345139 169.542481 498.243649 169.958744 C 496.707768 170.421259 495.761417 169.542481 496.24235 168.016182 C 497.235242 164.50107 498.336732 161.016793 499.391681 157.486264 C 499.62439 156.715406 499.903641 155.944548 498.693553 155.682456 L 501.842884 155.019518 C 502.634096 154.834513 502.835777 155.019518 502.556526 155.852045 C 501.39298 159.505911 500.307004 163.159778 499.205513 166.844478 C 499.03486 167.445747 498.476358 168.262857 499.003832 168.617451 C 499.54682 168.956629 500.012239 168.047017 500.431115 167.615336 C 500.524199 167.507416 500.648311 167.445747 500.849992 167.707839 Z M 500.849992 167.707839 " transform="matrix(0.25179,0,0,0.25337,0.00837987,0)"/>
<path style="fill-rule:nonzero;fill:rgb(92.156863%,50.980395%,13.725491%);fill-opacity:1;stroke-width:1;stroke-linecap:butt;stroke-linejoin:miter;stroke:rgb(92.156863%,50.980395%,13.725491%);stroke-opacity:1;stroke-miterlimit:10;" d="M 452.694702 167.476582 C 451.484614 169.342058 449.297148 170.313339 447.094168 169.989578 C 445.620343 169.696652 444.596422 168.35536 444.70502 166.844478 C 444.875673 163.483538 447.249307 160.631364 450.52275 159.845089 C 451.267419 159.6755 452.05863 159.752586 452.756758 160.076346 C 453.299746 160.338438 453.672081 160.862621 453.749651 161.479307 C 453.811706 162.095994 453.563483 162.697263 453.082551 163.067275 C 452.865356 163.298532 452.570591 163.421869 452.275826 163.421869 C 451.965547 163.421869 451.670782 163.298532 451.453587 163.067275 C 451.220877 162.866852 451.096766 162.573926 451.096766 162.265582 C 451.096766 161.957239 451.220877 161.664313 451.453587 161.46389 C 451.686296 161.186381 452.275826 161.016793 451.934519 160.538861 C 451.577698 160.060929 451.081252 160.230518 450.615833 160.430941 C 449.173036 161.155547 448.133602 162.527674 447.838837 164.131059 C 447.450988 165.53402 446.908 167.137404 448.350797 168.232022 C 449.793594 169.326641 450.988168 168.339943 452.198256 167.64617 C 452.368909 167.584502 452.524049 167.522833 452.694702 167.476582 Z M 452.694702 167.476582 " transform="matrix(0.25179,0,0,0.25337,0.00837987,0)"/>
<path style="fill-rule:nonzero;fill:rgb(92.156863%,50.980395%,13.725491%);fill-opacity:1;stroke-width:1;stroke-linecap:butt;stroke-linejoin:miter;stroke:rgb(92.156863%,50.980395%,13.725491%);stroke-opacity:1;stroke-miterlimit:10;" d="M 353.467501 167.661588 C 353.451987 167.969931 353.26582 168.262857 352.986569 168.386194 C 352.815915 167.939096 353.11068 167.784925 353.467501 167.677005 Z M 353.467501 167.661588 " transform="matrix(0.25179,0,0,0.25337,0.00837987,0)"/>
<path style=" stroke:none;fill-rule:nonzero;fill:rgb(92.941177%,51.372552%,14.117648%);fill-opacity:1;" d="M 21.808594 41.703125 C 21.832031 41.734375 21.917969 41.742188 21.859375 41.804688 C 21.804688 41.863281 21.789062 41.804688 21.769531 41.761719 Z M 21.808594 41.703125 "/>
<path style=" stroke:none;fill-rule:nonzero;fill:rgb(92.941177%,51.372552%,14.117648%);fill-opacity:1;" d="M 21.769531 41.761719 L 21.707031 41.707031 L 21.777344 41.667969 Z M 21.769531 41.761719 "/>
<path style="fill-rule:nonzero;fill:rgb(92.156863%,50.980395%,13.725491%);fill-opacity:1;stroke-width:1;stroke-linecap:butt;stroke-linejoin:miter;stroke:rgb(92.156863%,50.980395%,13.725491%);stroke-opacity:1;stroke-miterlimit:10;" d="M 353.002083 168.386194 L 352.784887 168.632869 L 352.629748 168.447863 C 352.75386 168.370777 352.862457 168.201188 353.017597 168.447863 Z M 353.002083 168.386194 " transform="matrix(0.25179,0,0,0.25337,0.00837987,0)"/>
<path style=" stroke:none;fill-rule:nonzero;fill:rgb(92.941177%,51.372552%,14.117648%);fill-opacity:1;" d="M 49.042969 12.414062 L 49.027344 12.414062 L 49.050781 12.390625 L 49.066406 12.410156 Z M 49.042969 12.414062 "/>
<path style="fill-rule:nonzero;fill:rgb(92.156863%,50.980395%,13.725491%);fill-opacity:1;stroke-width:1;stroke-linecap:butt;stroke-linejoin:miter;stroke:rgb(92.156863%,50.980395%,13.725491%);stroke-opacity:1;stroke-miterlimit:10;" d="M 460.327564 163.344783 L 460.529245 163.452704 L 460.374106 163.761047 C 460.31205 163.761047 460.203452 163.683961 460.203452 163.653127 C 460.23448 163.545207 460.281022 163.437286 460.327564 163.344783 Z M 460.327564 163.344783 " transform="matrix(0.25179,0,0,0.25337,0.00837987,0)"/>
</g>
</svg>
